<svg xmlns="http://www.w3.org/2000/svg" viewBox="0 0 512 512" width="100%" height="100%">
  <!-- Background -->
  <rect width="100%" height="100%" fill="#FBF9F6"/>
  
  <!-- Japandi Zen circle (Enso/Rising Sun) -->
  <circle cx="256" cy="230" r="120" fill="#D7A48F" opacity="0.85" />
  
  <!-- Minimalist Scandinavian Botanical stalk/leaf -->
  <path d="M256,400 C256,310 200,240 230,160 C240,135 256,110 256,110 C256,110 272,135 282,160 C312,240 256,310 256,400 Z" fill="#6B7F6D" />
  
  <!-- Delicate aesthetic branch veins/details -->
  <path d="M256,320 C270,300 290,290 310,290" stroke="#FBF9F6" stroke-width="4" stroke-linecap="round" fill="none" />
  <path d="M256,260 C235,245 215,240 195,245" stroke="#FBF9F6" stroke-width="4" stroke-linecap="round" fill="none" />
  <path d="M256,210 C270,195 285,190 300,192" stroke="#FBF9F6" stroke-width="4" stroke-linecap="round" fill="none" />
  <path d="M256,160 C243,150 232,148 220,152" stroke="#FBF9F6" stroke-width="4" stroke-linecap="round" fill="none" />

  <!-- Aesthetic frame border -->
  <rect x="24" y="24" width="464" height="464" rx="12" fill="none" stroke="#4A3F35" stroke-width="2" stroke-opacity="0.1" />
</svg>
